<svg xmlns="http://www.w3.org/2000/svg" shape-rendering="geometricPrecision" text-rendering="geometricPrecision" image-rendering="optimizeQuality" fill-rule="evenodd" clip-rule="evenodd" viewBox="0 0 512 298.99"><path fill="#593926" fill-rule="nonzero" d="M426.87 30.688l14.343-6.815c8.613-4.095 18.108-4.297 26.459-1.33 8.38 2.98 15.644 9.161 19.757 17.804l21.228 44.66c4.092 8.609 4.297 18.105 1.327 26.458-2.977 8.38-9.159 15.644-17.804 19.755l-7.173 3.412-9.408-16.824.396-.197 7.973-3.792c3.806-1.811 6.537-5.031 7.862-8.76 1.331-3.753 1.249-8.003-.576-11.844l-21.228-44.657c-1.808-3.805-5.031-6.533-8.76-7.859-3.751-1.333-8.004-1.251-11.841.574l-13.142 6.245-9.413-16.83z"/><path fill="#3045B7" d="M346.839 189.001l-21.513-49.602-48.023-17.497c-3.362-1.224-2.616-.775-4.108-4.07l-11.979-26.466c-2.923-6.457-3.09-9.784-9.177-13.626-3.433-2.165-7.152-3.645-11.489-3.646l-29.943 87.658c2.854 1.734 5.91 3.06 9.424 3.442 6.03.654 9.385-2.001 14.663-4.568l30.213-14.7c1.41-.686 1.039-.8 2.384-.07l79.548 43.145z"/><path fill="#2B3FA2" d="M397.596 6.486c-5.952-5.751-13.858-8.482-21.544-4.829l-62.939 29.918c-7.694 3.657-10.918 11.642-10.042 19.843l94.525-44.932z"/><path fill="#92C2E8" fill-rule="nonzero" d="M130.765 91.592c-4.472 4.193 1.896 10.99 6.37 6.797 2.063-1.983 4.324-3.789 6.668-5.431 4.95-3.439 0-11.101-5.275-7.679-2.77 2.03-5.274 3.921-7.763 6.313zm5.928 58.607c-4.699 3.868.92 11.049 5.846 7.25 2.362-1.912 4.643-3.508 7.121-5.242 5.127-3.325.071-11.148-5.087-7.802-2.666 1.667-5.43 3.811-7.88 5.794zm25.338-14.737c-5.774 2.253-2.469 10.82 3.256 8.725a67.75 67.75 0 018.329-2.533c5.87-1.365 4.037-10.358-2.103-9.074a76.63 76.63 0 00-9.482 2.882zm29.365-4.562c-6.182-.281-6.783 8.736-.658 9.293 2.865.183 5.652.637 8.448 1.273 5.904 1.374 8.185-7.517 2.142-9.063-3.313-.779-6.539-1.251-9.932-1.503zm-62.923-4.037c-4.001 4.86 3.052 10.64 7.026 6.119l1.393-1.541c4.163-4.442-2.327-10.839-6.725-6.441l-1.694 1.863zm17.24-14.163c-5.256 3.267-.528 11.065 4.769 7.998 2.499-1.486 5.114-2.885 7.771-4.073 5.663-2.691 1.675-10.97-3.824-8.495a90.975 90.975 0 00-8.716 4.57zm27.373-10.654c-5.95 1.246-4.256 10.268 1.863 9.129 2.879-.601 5.725-.986 8.654-1.24 6.113-.554 5.389-9.705-.743-9.287-3.322.308-6.504.718-9.774 1.398zm29.709-.101c-6.119-1.281-7.979 7.709-2.087 9.08 2.8.623 5.373 1.492 8.012 2.611 5.744 2.382 9.293-6.028 3.742-8.528a53.007 53.007 0 00-9.667-3.163zM156.15 76.287c-5.709 2.087-2.789 10.746 3.13 8.774a76.817 76.817 0 018.373-2.442c5.979-1.393 4.007-10.356-2.013-9.096-3.267.784-6.318 1.644-9.49 2.764zm29.026-4.887c-6.132 0-6.244 9.176-.093 9.315 2.899 0 5.854.221 8.728.587 6.184.702 7.23-8.413 1.213-9.232a74.058 74.058 0 00-9.848-.67zm29.015 5.813c-5.657-2.346-9.295 6.029-3.671 8.561a53.078 53.078 0 017.589 3.972c5.201 3.231 10.142-4.524 4.977-7.873a61.553 61.553 0 00-8.895-4.66z"/><path fill="#62B340" d="M80.692 226.266l.055-.308 47.502-18.726-43.629 25.036c7.244 6.976 15.718 10.648 25.322 11.279 19.81 1.308 38.084-7.512 50.308-22.834 2.319-2.909 4.324-6.143 6.094-9.525 2.147-4.114 9.832-17.928 8.722-21.222-1.625-4.821-24.24-8.143-29.414-8.853-26.881-3.682-59.743.776-67.036 32.394-.355 1.543-.432 3.111-.309 4.701l-1.513.978-1.434-1.046a12.77 12.77 0 00.385-3.352c-.664-27.264-26.961-36.478-49.713-37.983-4.381-.295-23.56-1.377-25.71 2.316-1.472 2.533 2.522 15.202 3.595 18.944.888 3.084 1.994 6.089 3.409 8.873 7.474 14.679 21.031 25.029 37.557 27.294 8.018 1.101 15.617-.489 22.757-5.01l-31.695-27.977 34.225 22.317-.006.238c2.729 9.533 2.257 23.358-.377 34.904l13.697 4.655c-2.869-10.686-6.297-26.409-2.792-37.093z"/><path fill="#482E1F" d="M14.155 291.151c-3.434.146-5.942 5.008-4.745 7.839h129.53c-2.815-7.414-10.317-10.728-13.808-10.934-1.684-17.322-18.636-23.528-31.148-16.866 4.697-13.014-5.266-15.767-12.376-13.821-3.562-4.385-17.141-.889-17.534 7.013-16.719-11.281-32.592-1.914-30.942 14.027-5.636-3.236-19.403-1.3-18.977 12.742z"/><path fill="#354EC8" d="M378.989 220.401l103.515-49.205c9.354-4.446 13.976-16.05 8.922-25.09l-68.69-122.807c-5.054-9.039-15.737-13.368-25.089-8.922l-86.689 41.207c-9.352 4.445-12.74 15.464-8.923 25.089l51.864 130.806c3.818 9.626 15.736 13.369 25.09 8.922z"/></svg>